<?xml version="1.0" encoding="UTF-8" standalone="no"?>
<!DOCTYPE svg PUBLIC "-//W3C//DTD SVG 1.1//EN"
 "http://www.w3.org/Graphics/SVG/1.1/DTD/svg11.dtd">
<!-- Generated by graphviz version 2.40.1 (20161225.0304)
 -->
<!-- Title: dependencies Pages: 1 -->
<svg width="504pt" height="211pt"
 viewBox="0.00 0.00 504.00 211.00" xmlns="http://www.w3.org/2000/svg" xmlns:xlink="http://www.w3.org/1999/xlink">
<g id="graph0" class="graph" transform="scale(1 1) rotate(0) translate(4 207)">
<title>dependencies</title>
<polygon fill="#ffffff" stroke="transparent" points="-4,4 -4,-207 500,-207 500,4 -4,4"/>
<text text-anchor="start" x="227.0091" y="-42.4" font-family="sans-serif" font-weight="bold" font-size="14.00" fill="#000000">Legend</text>
<polygon fill="#ffffb3" stroke="transparent" points="14,-10 14,-30 34,-30 34,-10 14,-10"/>
<text text-anchor="start" x="37.629" y="-15.4" font-family="sans-serif" font-size="14.00" fill="#000000"> &#160;Declarations</text>
<polygon fill="#8dd3c7" stroke="transparent" points="127,-10 127,-30 147,-30 147,-10 127,-10"/>
<text text-anchor="start" x="150.7251" y="-15.4" font-family="sans-serif" font-size="14.00" fill="#000000"> &#160;Module</text>
<polygon fill="#80b1d3" stroke="transparent" points="213,-10 213,-30 233,-30 233,-10 213,-10"/>
<text text-anchor="start" x="236.7812" y="-15.4" font-family="sans-serif" font-size="14.00" fill="#000000"> &#160;Bootstrap</text>
<polygon fill="#fdb462" stroke="transparent" points="310,-10 310,-30 330,-30 330,-10 310,-10"/>
<text text-anchor="start" x="333.6732" y="-15.4" font-family="sans-serif" font-size="14.00" fill="#000000"> &#160;Providers</text>
<polygon fill="#fb8072" stroke="transparent" points="406,-10 406,-30 426,-30 426,-10 406,-10"/>
<text text-anchor="start" x="429.7258" y="-15.4" font-family="sans-serif" font-size="14.00" fill="#000000"> &#160;Exports</text>
<g id="clust1" class="cluster">
<title>cluster_ServicesModule</title>
<polygon fill="none" stroke="#000000" stroke-dasharray="1,5" points="96,-70 96,-195 400,-195 400,-70 96,-70"/>
</g>
<g id="clust6" class="cluster">
<title>cluster_ServicesModule_providers</title>
<polygon fill="none" stroke="#000000" points="104,-78 104,-130 392,-130 392,-78 104,-78"/>
</g>
<!-- ThemeService -->
<g id="node1" class="node">
<title>ThemeService</title>
<ellipse fill="#fdb462" stroke="#000000" cx="317" cy="-104" rx="66.6113" ry="18"/>
<text text-anchor="middle" x="317" y="-99.8" font-family="Times,serif" font-size="14.00" fill="#000000">ThemeService</text>
</g>
<!-- ServicesModule -->
<g id="node3" class="node">
<title>ServicesModule</title>
<polygon fill="#8dd3c7" stroke="#000000" points="297.472,-187 294.472,-191 273.472,-191 270.472,-187 190.528,-187 190.528,-151 297.472,-151 297.472,-187"/>
<text text-anchor="middle" x="244" y="-164.8" font-family="Times,serif" font-size="14.00" fill="#000000">ServicesModule</text>
</g>
<!-- ThemeService&#45;&gt;ServicesModule -->
<g id="edge1" class="edge">
<title>ThemeService&#45;&gt;ServicesModule</title>
<path fill="none" stroke="#000000" d="M273.8403,-117.7848C273.8403,-117.7848 273.8403,-140.5475 273.8403,-140.5475"/>
<polygon fill="#000000" stroke="#000000" points="270.3404,-140.5474 273.8403,-150.5475 277.3404,-140.5475 270.3404,-140.5474"/>
</g>
<!-- TodoService -->
<g id="node2" class="node">
<title>TodoService</title>
<ellipse fill="#fdb462" stroke="#000000" cx="172" cy="-104" rx="60.2537" ry="18"/>
<text text-anchor="middle" x="172" y="-99.8" font-family="Times,serif" font-size="14.00" fill="#000000">TodoService</text>
</g>
<!-- TodoService&#45;&gt;ServicesModule -->
<g id="edge2" class="edge">
<title>TodoService&#45;&gt;ServicesModule</title>
<path fill="none" stroke="#000000" d="M211.4454,-117.7848C211.4454,-117.7848 211.4454,-140.5475 211.4454,-140.5475"/>
<polygon fill="#000000" stroke="#000000" points="207.9455,-140.5474 211.4454,-150.5475 214.9455,-140.5475 207.9455,-140.5474"/>
</g>
</g>
</svg>
