<?xml version="1.0" encoding="UTF-8" standalone="no"?>
<!DOCTYPE svg PUBLIC "-//W3C//DTD SVG 1.1//EN"
 "http://www.w3.org/Graphics/SVG/1.1/DTD/svg11.dtd">
<!-- Generated by graphviz version 2.40.1 (20161225.0304)
 -->
<!-- Title: dependencies Pages: 1 -->
<svg width="986pt" height="284pt"
 viewBox="0.00 0.00 986.00 284.00" xmlns="http://www.w3.org/2000/svg" xmlns:xlink="http://www.w3.org/1999/xlink">
<g id="graph0" class="graph" transform="scale(1 1) rotate(0) translate(4 280)">
<title>dependencies</title>
<polygon fill="#ffffff" stroke="transparent" points="-4,4 -4,-280 982,-280 982,4 -4,4"/>
<text text-anchor="start" x="468.0091" y="-42.4" font-family="sans-serif" font-weight="bold" font-size="14.00" fill="#000000">Legend</text>
<polygon fill="#ffffb3" stroke="transparent" points="255,-10 255,-30 275,-30 275,-10 255,-10"/>
<text text-anchor="start" x="278.629" y="-15.4" font-family="sans-serif" font-size="14.00" fill="#000000"> &#160;Declarations</text>
<polygon fill="#8dd3c7" stroke="transparent" points="368,-10 368,-30 388,-30 388,-10 368,-10"/>
<text text-anchor="start" x="391.7251" y="-15.4" font-family="sans-serif" font-size="14.00" fill="#000000"> &#160;Module</text>
<polygon fill="#80b1d3" stroke="transparent" points="454,-10 454,-30 474,-30 474,-10 454,-10"/>
<text text-anchor="start" x="477.7812" y="-15.4" font-family="sans-serif" font-size="14.00" fill="#000000"> &#160;Bootstrap</text>
<polygon fill="#fdb462" stroke="transparent" points="551,-10 551,-30 571,-30 571,-10 551,-10"/>
<text text-anchor="start" x="574.6732" y="-15.4" font-family="sans-serif" font-size="14.00" fill="#000000"> &#160;Providers</text>
<polygon fill="#fb8072" stroke="transparent" points="647,-10 647,-30 667,-30 667,-10 647,-10"/>
<text text-anchor="start" x="670.7258" y="-15.4" font-family="sans-serif" font-size="14.00" fill="#000000"> &#160;Exports</text>
<g id="clust1" class="cluster">
<title>cluster_AppModule</title>
<polygon fill="none" stroke="#000000" stroke-dasharray="1,5" points="8,-70 8,-268 970,-268 970,-70 8,-70"/>
</g>
<g id="clust2" class="cluster">
<title>cluster_AppModule_declarations</title>
<polygon fill="none" stroke="#000000" points="714,-78 714,-130 962,-130 962,-78 714,-78"/>
</g>
<g id="clust5" class="cluster">
<title>cluster_AppModule_imports</title>
<polygon fill="none" stroke="#000000" points="16,-78 16,-130 706,-130 706,-78 16,-78"/>
</g>
<g id="clust7" class="cluster">
<title>cluster_AppModule_bootstrap</title>
<polygon fill="none" stroke="#000000" points="429,-208 429,-260 553,-260 553,-208 429,-208"/>
</g>
<!-- AppComponent -->
<g id="node1" class="node">
<title>AppComponent</title>
<polygon fill="#ffffb3" stroke="#000000" points="953.9399,-122 848.0601,-122 848.0601,-86 953.9399,-86 953.9399,-122"/>
<text text-anchor="middle" x="901" y="-99.8" font-family="Times,serif" font-size="14.00" fill="#000000">AppComponent</text>
</g>
<!-- AppModule -->
<g id="node3" class="node">
<title>AppModule</title>
<polygon fill="#8dd3c7" stroke="#000000" points="532.6571,-187 529.6571,-191 508.6571,-191 505.6571,-187 449.3429,-187 449.3429,-151 532.6571,-151 532.6571,-187"/>
<text text-anchor="middle" x="491" y="-164.8" font-family="Times,serif" font-size="14.00" fill="#000000">AppModule</text>
</g>
<!-- AppComponent&#45;&gt;AppModule -->
<g id="edge1" class="edge">
<title>AppComponent&#45;&gt;AppModule</title>
<path fill="none" stroke="#000000" d="M901,-122.2921C901,-144.2057 901,-178 901,-178 901,-178 542.9504,-178 542.9504,-178"/>
<polygon fill="#000000" stroke="#000000" points="542.9504,-174.5001 532.9504,-178 542.9504,-181.5001 542.9504,-174.5001"/>
</g>
<!-- IntroComponent -->
<g id="node2" class="node">
<title>IntroComponent</title>
<polygon fill="#ffffb3" stroke="#000000" points="830.0452,-122 721.9548,-122 721.9548,-86 830.0452,-86 830.0452,-122"/>
<text text-anchor="middle" x="776" y="-99.8" font-family="Times,serif" font-size="14.00" fill="#000000">IntroComponent</text>
</g>
<!-- IntroComponent&#45;&gt;AppModule -->
<g id="edge2" class="edge">
<title>IntroComponent&#45;&gt;AppModule</title>
<path fill="none" stroke="#000000" d="M776,-122.1061C776,-141.3391 776,-169 776,-169 776,-169 542.7467,-169 542.7467,-169"/>
<polygon fill="#000000" stroke="#000000" points="542.7467,-165.5001 532.7467,-169 542.7466,-172.5001 542.7467,-165.5001"/>
</g>
<!-- AppComponent  -->
<g id="node9" class="node">
<title>AppComponent </title>
<polygon fill="#80b1d3" stroke="#000000" points="545.439,-252 436.561,-252 436.561,-216 545.439,-216 545.439,-252"/>
<text text-anchor="middle" x="491" y="-229.8" font-family="Times,serif" font-size="14.00" fill="#000000">AppComponent </text>
</g>
<!-- AppModule&#45;&gt;AppComponent  -->
<g id="edge8" class="edge">
<title>AppModule&#45;&gt;AppComponent </title>
<path fill="none" stroke="#000000" stroke-dasharray="1,5" d="M491,-187.1061C491,-187.1061 491,-205.991 491,-205.991"/>
<polygon fill="#000000" stroke="#000000" points="487.5001,-205.9909 491,-215.991 494.5001,-205.991 487.5001,-205.9909"/>
</g>
<!-- AppRoutingModule -->
<g id="node4" class="node">
<title>AppRoutingModule</title>
<polygon fill="#8dd3c7" stroke="#000000" points="698.2744,-122 695.2744,-126 674.2744,-126 671.2744,-122 569.7256,-122 569.7256,-86 698.2744,-86 698.2744,-122"/>
<text text-anchor="middle" x="634" y="-99.8" font-family="Times,serif" font-size="14.00" fill="#000000">AppRoutingModule</text>
</g>
<!-- AppRoutingModule&#45;&gt;AppModule -->
<g id="edge3" class="edge">
<title>AppRoutingModule&#45;&gt;AppModule</title>
<path fill="none" stroke="#000000" d="M634,-122.027C634,-138.3976 634,-160 634,-160 634,-160 542.7459,-160 542.7459,-160"/>
<polygon fill="#000000" stroke="#000000" points="542.746,-156.5001 532.7459,-160 542.7459,-163.5001 542.746,-156.5001"/>
</g>
<!-- HomePageModule -->
<g id="node5" class="node">
<title>HomePageModule</title>
<polygon fill="#8dd3c7" stroke="#000000" points="551.4734,-122 548.4734,-126 527.4734,-126 524.4734,-122 430.5266,-122 430.5266,-86 551.4734,-86 551.4734,-122"/>
<text text-anchor="middle" x="491" y="-99.8" font-family="Times,serif" font-size="14.00" fill="#000000">HomePageModule</text>
</g>
<!-- HomePageModule&#45;&gt;AppModule -->
<g id="edge4" class="edge">
<title>HomePageModule&#45;&gt;AppModule</title>
<path fill="none" stroke="#000000" d="M491,-122.1061C491,-122.1061 491,-140.991 491,-140.991"/>
<polygon fill="#000000" stroke="#000000" points="487.5001,-140.9909 491,-150.991 494.5001,-140.991 487.5001,-140.9909"/>
</g>
<!-- LoginPageModule -->
<g id="node6" class="node">
<title>LoginPageModule</title>
<polygon fill="#8dd3c7" stroke="#000000" points="412.205,-122 409.205,-126 388.205,-126 385.205,-122 291.795,-122 291.795,-86 412.205,-86 412.205,-122"/>
<text text-anchor="middle" x="352" y="-99.8" font-family="Times,serif" font-size="14.00" fill="#000000">LoginPageModule</text>
</g>
<!-- LoginPageModule&#45;&gt;AppModule -->
<g id="edge5" class="edge">
<title>LoginPageModule&#45;&gt;AppModule</title>
<path fill="none" stroke="#000000" d="M352,-122.027C352,-138.3976 352,-160 352,-160 352,-160 439.2954,-160 439.2954,-160"/>
<polygon fill="#000000" stroke="#000000" points="439.2955,-163.5001 449.2954,-160 439.2954,-156.5001 439.2955,-163.5001"/>
</g>
<!-- ServicesModule -->
<g id="node7" class="node">
<title>ServicesModule</title>
<polygon fill="#8dd3c7" stroke="#000000" points="273.472,-122 270.472,-126 249.472,-126 246.472,-122 166.528,-122 166.528,-86 273.472,-86 273.472,-122"/>
<text text-anchor="middle" x="220" y="-99.8" font-family="Times,serif" font-size="14.00" fill="#000000">ServicesModule</text>
</g>
<!-- ServicesModule&#45;&gt;AppModule -->
<g id="edge6" class="edge">
<title>ServicesModule&#45;&gt;AppModule</title>
<path fill="none" stroke="#000000" d="M220,-122.1061C220,-141.3391 220,-169 220,-169 220,-169 439.2502,-169 439.2502,-169"/>
<polygon fill="#000000" stroke="#000000" points="439.2502,-172.5001 449.2502,-169 439.2501,-165.5001 439.2502,-172.5001"/>
</g>
<!-- SplashPageModule -->
<g id="node8" class="node">
<title>SplashPageModule</title>
<polygon fill="#8dd3c7" stroke="#000000" points="148.094,-122 145.094,-126 124.094,-126 121.094,-122 23.906,-122 23.906,-86 148.094,-86 148.094,-122"/>
<text text-anchor="middle" x="86" y="-99.8" font-family="Times,serif" font-size="14.00" fill="#000000">SplashPageModule</text>
</g>
<!-- SplashPageModule&#45;&gt;AppModule -->
<g id="edge7" class="edge">
<title>SplashPageModule&#45;&gt;AppModule</title>
<path fill="none" stroke="#000000" d="M86,-122.2921C86,-144.2057 86,-178 86,-178 86,-178 439.1833,-178 439.1833,-178"/>
<polygon fill="#000000" stroke="#000000" points="439.1833,-181.5001 449.1833,-178 439.1833,-174.5001 439.1833,-181.5001"/>
</g>
</g>
</svg>
